<?xml version="1.0" standalone="no"?>
<!DOCTYPE svg PUBLIC "-//W3C//DTD SVG 20010904//EN"
 "http://www.w3.org/TR/2001/REC-SVG-20010904/DTD/svg10.dtd">
<svg version="1.0" xmlns="http://www.w3.org/2000/svg"
 width="408.000000pt" height="464.000000pt" viewBox="0 0 704.000000 215.000000"
 preserveAspectRatio="xMidYMid meet">

<g transform="translate(0.000000,215.000000) scale(0.100000,-0.100000)"
fill="#000000" stroke="none">
<path d="M5275 2080 c-94 -15 -214 -56 -284 -97 -88 -53 -182 -155 -224 -245
-44 -91 -57 -155 -57 -266 0 -160 43 -276 134 -368 94 -93 250 -154 586 -228
294 -65 400 -109 444 -184 22 -39 25 -119 7 -174 -16 -49 -85 -110 -157 -139
-53 -21 -74 -24 -224 -24 -139 0 -173 3 -215 19 -116 44 -180 118 -205 237
l-13 59 -196 0 -197 0 7 -77 c25 -286 227 -489 559 -560 66 -14 126 -18 270
-17 165 1 195 4 282 27 254 67 432 233 483 449 8 35 15 104 15 153 0 254 -128
419 -390 503 -36 12 -193 53 -350 92 -330 81 -396 107 -435 174 -47 80 -26
188 48 253 100 88 338 109 491 43 94 -40 176 -150 176 -235 l0 -25 201 0 201
0 -7 56 c-35 282 -196 462 -490 550 -77 22 -112 27 -245 30 -85 1 -182 -1
-215 -6z"/>
<path d="M36 2032 c-2 -5 430 -1545 544 -1935 l11 -37 192 2 192 3 107 520
c59 286 126 619 148 740 23 121 44 228 48 239 5 12 18 -38 36 -140 25 -140
238 -1191 267 -1316 l11 -48 196 0 197 0 274 978 c151 537 274 982 275 987 1
6 -75 11 -206 12 -115 1 -208 0 -208 -2 0 -2 -57 -248 -126 -547 -69 -299
-141 -619 -160 -712 -19 -93 -35 -171 -37 -172 -2 -2 -11 38 -20 89 -44 235
-271 1323 -279 1333 -10 13 -406 18 -424 6 -9 -6 -152 -720 -255 -1271 -16
-85 -31 -156 -32 -158 -2 -1 -15 66 -30 149 -28 156 -271 1226 -287 1264 -8
21 -13 22 -219 22 -116 0 -212 -2 -215 -6z"/>
<path d="M2793 1323 c3 -627 6 -727 20 -786 60 -246 186 -392 404 -470 117
-42 195 -52 383 -51 154 1 187 4 271 26 140 38 228 86 313 171 116 117 166
245 186 477 7 68 10 366 8 730 l-3 615 -207 2 -207 3 -4 -693 c-3 -586 -6
-700 -19 -742 -51 -169 -139 -235 -323 -243 -168 -7 -277 33 -336 126 -65 102
-63 77 -69 847 l-5 700 -208 3 -208 2 4 -717z"/>
<path d="M6585 2032 c-3 -3 -5 -448 -5 -989 l0 -983 205 0 205 0 -2 988 -3
987 -197 1 c-108 1 -200 -1 -203 -4z"/>
</g>
</svg>
